<svg width="52" height="52" viewBox="0 0 52 52" fill="none" xmlns="http://www.w3.org/2000/svg">
<path d="M35.2061 15.9119C35.9471 15.9119 36.5061 16.5619 36.2071 17.7709L32.5801 34.8659C32.3266 36.0814 31.5921 36.3739 30.5781 35.8084L21.9266 29.4189C21.8931 29.3948 21.8657 29.3631 21.8469 29.3263C21.828 29.2896 21.8182 29.2489 21.8182 29.2076C21.8182 29.1663 21.828 29.1256 21.8469 29.0889C21.8657 29.0522 21.8931 29.0204 21.9266 28.9964L31.9171 19.9744C32.3721 19.5714 31.8196 19.3764 31.2216 19.7404L18.6831 27.6509C18.6451 27.6757 18.6019 27.6915 18.5569 27.6971C18.5118 27.7027 18.4661 27.698 18.4231 27.6834L13.0996 25.9999C11.9166 25.6554 11.9166 24.8429 13.3661 24.2644L34.6666 16.0484C34.8356 15.9673 35.019 15.9209 35.2061 15.9119V15.9119Z" stroke="#F6F6F6" stroke-linecap="round" stroke-linejoin="round"/>
<circle cx="26" cy="26" r="25.5" stroke="#F6F6F6"/>
</svg>
