<svg width="30" height="30" viewBox="0 0 30 30" fill="none" xmlns="http://www.w3.org/2000/svg">
<path d="M20.3113 9.17993C20.7388 9.17993 21.0613 9.55493 20.8888 10.2524L18.7963 20.1149C18.6501 20.8162 18.2263 20.9849 17.6413 20.6587L12.6501 16.9724C12.6307 16.9585 12.615 16.9402 12.6041 16.9191C12.5932 16.8979 12.5875 16.8744 12.5875 16.8506C12.5875 16.8267 12.5932 16.8033 12.6041 16.7821C12.615 16.7609 12.6307 16.7426 12.6501 16.7287L18.4138 11.5237C18.6763 11.2912 18.3576 11.1787 18.0126 11.3887L10.7788 15.9524C10.7569 15.9667 10.732 15.9759 10.706 15.9791C10.68 15.9824 10.6536 15.9796 10.6288 15.9712L7.55759 14.9999C6.87509 14.8012 6.87509 14.3324 7.71134 13.9987L20.0001 9.25868C20.0975 9.21193 20.2034 9.18515 20.3113 9.17993V9.17993Z" stroke="#715B4B" stroke-linecap="round" stroke-linejoin="round"/>
<circle cx="15" cy="15" r="14.5" stroke="#715B4B"/>
</svg>
