<svg width="30" height="30" viewBox="0 0 30 30" fill="none" xmlns="http://www.w3.org/2000/svg">
<g clip-path="url(#clip0_1_50)">
<path fill-rule="evenodd" clip-rule="evenodd" d="M12.3841 8.69189C13.0608 8.66073 13.2766 8.65381 15.0005 8.65381C16.7243 8.65381 16.9401 8.66131 17.6162 8.69189C18.2924 8.72246 18.7539 8.83035 19.1578 8.98669C19.5806 9.1465 19.9643 9.39631 20.2816 9.71939C20.6047 10.0361 20.8539 10.4192 21.0131 10.8427C21.1701 11.2465 21.2774 11.708 21.3085 12.383C21.3397 13.0609 21.3466 13.2767 21.3466 15C21.3466 16.7238 21.3391 16.9396 21.3085 17.6163C21.278 18.2913 21.1701 18.7528 21.0131 19.1567C20.8539 19.5802 20.6043 19.9639 20.2816 20.2811C19.9643 20.6042 19.5806 20.8534 19.1578 21.0127C18.7539 21.1696 18.2924 21.2769 17.6174 21.308C16.9401 21.3392 16.7243 21.3461 15.0005 21.3461C13.2766 21.3461 13.0608 21.3386 12.3841 21.308C11.7091 21.2775 11.2476 21.1696 10.8437 21.0127C10.4202 20.8534 10.0365 20.6038 9.7193 20.2811C9.39644 19.9642 9.14659 19.5807 8.98718 19.1573C8.83084 18.7534 8.72353 18.2919 8.69237 17.6169C8.66122 16.939 8.6543 16.7232 8.6543 15C8.6543 13.2761 8.6618 13.0603 8.69237 12.3842C8.72295 11.708 8.83084 11.2465 8.98718 10.8427C9.14683 10.4192 9.39687 10.0357 9.71987 9.71881C10.0366 9.39602 10.42 9.14618 10.8431 8.98669C11.247 8.83035 11.7085 8.72304 12.3835 8.69189H12.3841ZM17.5649 9.83419C16.8956 9.80362 16.6949 9.79727 15.0005 9.79727C13.306 9.79727 13.1053 9.80362 12.436 9.83419C11.817 9.86246 11.4812 9.96573 11.2574 10.0528C10.9614 10.1682 10.7497 10.305 10.5276 10.5271C10.317 10.7319 10.155 10.9813 10.0533 11.2569C9.96622 11.4807 9.86295 11.8165 9.83468 12.4355C9.8041 13.1048 9.79776 13.3055 9.79776 15C9.79776 16.6944 9.8041 16.8952 9.83468 17.5644C9.86295 18.1834 9.96622 18.5192 10.0533 18.743C10.1549 19.0182 10.317 19.268 10.5276 19.4728C10.7324 19.6834 10.9822 19.8455 11.2574 19.9471C11.4812 20.0342 11.817 20.1375 12.436 20.1657C13.1053 20.1963 13.3055 20.2027 15.0005 20.2027C16.6955 20.2027 16.8956 20.1963 17.5649 20.1657C18.1839 20.1375 18.5197 20.0342 18.7435 19.9471C19.0395 19.8317 19.2512 19.695 19.4733 19.4728C19.6839 19.268 19.846 19.0182 19.9476 18.743C20.0347 18.5192 20.138 18.1834 20.1662 17.5644C20.1968 16.8952 20.2031 16.6944 20.2031 15C20.2031 13.3055 20.1968 13.1048 20.1662 12.4355C20.138 11.8165 20.0347 11.4807 19.9476 11.2569C19.8322 10.9609 19.6955 10.7492 19.4733 10.5271C19.2685 10.3165 19.0191 10.1545 18.7435 10.0528C18.5197 9.96573 18.1839 9.86246 17.5649 9.83419V9.83419ZM14.1899 16.9563C14.6426 17.1447 15.1466 17.1702 15.616 17.0283C16.0853 16.8863 16.4909 16.5859 16.7633 16.1782C17.0357 15.7705 17.1582 15.2808 17.1097 14.7929C17.0612 14.305 16.8449 13.849 16.4976 13.5028C16.2762 13.2816 16.0085 13.1122 15.7137 13.0068C15.419 12.9014 15.1045 12.8627 14.793 12.8934C14.4815 12.9241 14.1807 13.0235 13.9123 13.1845C13.6438 13.3454 13.4143 13.5639 13.2404 13.8241C13.0665 14.0844 12.9525 14.3799 12.9065 14.6896C12.8606 14.9992 12.8838 15.3151 12.9746 15.6147C13.0654 15.9142 13.2215 16.1899 13.4316 16.4219C13.6418 16.6539 13.9007 16.8364 14.1899 16.9563ZM12.6939 12.6934C12.9968 12.3905 13.3564 12.1503 13.7522 11.9863C14.1479 11.8224 14.5721 11.738 15.0005 11.738C15.4288 11.738 15.853 11.8224 16.2487 11.9863C16.6445 12.1503 17.0041 12.3905 17.307 12.6934C17.6099 12.9963 17.8502 13.3559 18.0141 13.7517C18.178 14.1474 18.2624 14.5716 18.2624 15C18.2624 15.4283 18.178 15.8525 18.0141 16.2483C17.8502 16.644 17.6099 17.0036 17.307 17.3065C16.6953 17.9182 15.8656 18.2619 15.0005 18.2619C14.1353 18.2619 13.3056 17.9182 12.6939 17.3065C12.0822 16.6948 11.7385 15.8651 11.7385 15C11.7385 14.1348 12.0822 13.3052 12.6939 12.6934V12.6934ZM18.9858 12.2238C19.0609 12.153 19.121 12.0679 19.1625 11.9734C19.2041 11.879 19.2263 11.7771 19.2278 11.674C19.2293 11.5708 19.2101 11.4684 19.1713 11.3727C19.1325 11.2771 19.0749 11.1903 19.002 11.1173C18.929 11.0443 18.8421 10.9867 18.7465 10.948C18.6509 10.9092 18.5485 10.8899 18.4453 10.8915C18.3421 10.893 18.2403 10.9151 18.1459 10.9567C18.0514 10.9983 17.9663 11.0584 17.8955 11.1334C17.7577 11.2794 17.6824 11.4733 17.6853 11.674C17.6882 11.8746 17.7692 12.0662 17.9111 12.2081C18.053 12.35 18.2446 12.4311 18.4453 12.434C18.646 12.4369 18.8399 12.3615 18.9858 12.2238V12.2238Z" fill="#715B4B"/>
</g>
<circle cx="15" cy="15" r="14.5" stroke="#715B4B"/>
<defs>
<clipPath id="clip0_1_50">
<rect width="13.8462" height="13.8462" fill="white" transform="translate(8.07715 8.0769)"/>
</clipPath>
</defs>
</svg>
