<svg width="14" height="14" viewBox="0 0 14 14" fill="none" xmlns="http://www.w3.org/2000/svg">
<g clip-path="url(#clip0_1_59)">
<path fill-rule="evenodd" clip-rule="evenodd" d="M10.1243 8.37424C9.95234 8.28827 9.10946 7.87404 8.95253 7.81635C8.79561 7.75924 8.68138 7.73097 8.56657 7.90289C8.45234 8.07366 8.12407 8.4602 8.02426 8.57443C7.92388 8.68924 7.82407 8.70308 7.65273 8.6177C7.48138 8.53116 6.92869 8.35058 6.27388 7.76674C5.76446 7.31212 5.42003 6.75078 5.32023 6.57885C5.22042 6.40751 5.30926 6.31462 5.39523 6.22924C5.47253 6.15251 5.56657 6.02904 5.65253 5.92924C5.73849 5.82885 5.76676 5.75731 5.82388 5.64251C5.88157 5.52827 5.85273 5.42847 5.80946 5.34251C5.76676 5.25654 5.42407 4.41251 5.28099 4.06924C5.14196 3.7352 5.00061 3.78077 4.89561 3.77501C4.79523 3.77039 4.68099 3.76924 4.56676 3.76924C4.45253 3.76924 4.26676 3.81193 4.10984 3.98385C3.95234 4.1552 3.50984 4.57001 3.50984 5.41404C3.50984 6.25751 4.12369 7.0727 4.20965 7.18751C4.29561 7.30174 5.4183 9.03366 7.13811 9.77616C7.54773 9.9527 7.86676 10.0583 8.11542 10.1367C8.52619 10.2677 8.90003 10.2492 9.19542 10.2048C9.52426 10.1558 10.2096 9.79001 10.3527 9.38962C10.4952 8.98924 10.4952 8.64597 10.4525 8.57443C10.4098 8.50289 10.2956 8.4602 10.1237 8.37424H10.1243ZM6.99619 12.6452H6.99388C5.9724 12.6454 4.96967 12.3708 4.0908 11.8502L3.88311 11.7267L1.72426 12.2933L2.30061 10.1887L2.16503 9.97289C1.59396 9.06386 1.29174 8.0118 1.2933 6.93827C1.29446 3.79404 3.85253 1.23597 6.99849 1.23597C8.52157 1.23597 9.95349 1.8302 11.03 2.90789C11.561 3.43669 11.9819 4.06552 12.2683 4.75802C12.5547 5.45052 12.7009 6.19294 12.6985 6.94231C12.6973 10.0865 10.1393 12.6452 6.99619 12.6452V12.6452ZM11.8493 2.08924C11.2136 1.44938 10.4573 0.942045 9.62412 0.596621C8.79096 0.251196 7.89753 0.0745526 6.99561 0.0769279C3.21446 0.0769279 0.135995 3.15481 0.134841 6.9377C0.134264 8.14693 0.449841 9.32731 1.05042 10.3675L0.0771484 13.9231L3.71407 12.9689C4.72015 13.517 5.84759 13.8042 6.9933 13.8042H6.99619C10.7773 13.8042 13.8558 10.7264 13.857 6.94289C13.8597 6.04132 13.6837 5.14814 13.3391 4.31502C12.9945 3.48191 12.4881 2.72539 11.8493 2.08924" fill="url(#paint0_linear_1_59)"/>
</g>
<defs>
<linearGradient id="paint0_linear_1_59" x1="11" y1="10" x2="-4.5" y2="16.5" gradientUnits="userSpaceOnUse">
<stop stop-color="#69FF93"/>
<stop offset="0.703869" stop-color="#4DAD1F"/>
</linearGradient>
<clipPath id="clip0_1_59">
<rect width="13.8462" height="13.8462" fill="white" transform="translate(0.0771484 0.0769043)"/>
</clipPath>
</defs>
</svg>
