<svg width="14" height="14" viewBox="0 0 14 14" fill="none" xmlns="http://www.w3.org/2000/svg">
<g clip-path="url(#clip0_1_50)">
<path fill-rule="evenodd" clip-rule="evenodd" d="M4.30696 0.614981C4.98369 0.583827 5.19946 0.576904 6.9233 0.576904C8.64715 0.576904 8.86292 0.584404 9.53907 0.614981C10.2152 0.645558 10.6768 0.753443 11.0806 0.909789C11.5035 1.0696 11.8871 1.3194 12.2045 1.64248C12.5275 1.95921 12.7768 2.34229 12.936 2.76575C13.0929 3.1696 13.2002 3.63114 13.2314 4.30614C13.2625 4.98402 13.2695 5.19979 13.2695 6.92306C13.2695 8.6469 13.262 8.86267 13.2314 9.5394C13.2008 10.2144 13.0929 10.6759 12.936 11.0798C12.7768 11.5033 12.5271 11.887 12.2045 12.2042C11.8871 12.5273 11.5035 12.7765 11.0806 12.9358C10.6768 13.0927 10.2152 13.2 9.54022 13.2311C8.86292 13.2623 8.64715 13.2692 6.9233 13.2692C5.19946 13.2692 4.98369 13.2617 4.30696 13.2311C3.63196 13.2006 3.17042 13.0927 2.76657 12.9358C2.34306 12.7765 1.95935 12.5269 1.64215 12.2042C1.31929 11.8873 1.06945 11.5038 0.910033 11.0804C0.753687 10.6765 0.646379 10.215 0.615225 9.53998C0.584072 8.8621 0.577148 8.64633 0.577148 6.92306C0.577148 5.19921 0.584648 4.98344 0.615225 4.30729C0.645802 3.63114 0.753687 3.1696 0.910033 2.76575C1.06968 2.34234 1.31972 1.95882 1.64273 1.6419C1.95948 1.31912 2.34281 1.06928 2.76599 0.909789C3.16984 0.753443 3.63138 0.646135 4.30638 0.614981H4.30696ZM9.48773 1.75729C8.81849 1.72671 8.61773 1.72037 6.9233 1.72037C5.22888 1.72037 5.02811 1.72671 4.35888 1.75729C3.73984 1.78556 3.40407 1.88883 3.18023 1.97594C2.88426 2.09133 2.67253 2.22806 2.45042 2.45017C2.23987 2.65501 2.07783 2.90437 1.97619 3.17998C1.88907 3.40383 1.7858 3.7396 1.75753 4.35863C1.72696 5.02787 1.72061 5.22864 1.72061 6.92306C1.72061 8.61748 1.72696 8.81825 1.75753 9.48748C1.7858 10.1065 1.88907 10.4423 1.97619 10.6661C2.07773 10.9413 2.23984 11.1911 2.45042 11.3959C2.65523 11.6065 2.90503 11.7686 3.18023 11.8702C3.40407 11.9573 3.73984 12.0606 4.35888 12.0888C5.02811 12.1194 5.2283 12.1258 6.9233 12.1258C8.6183 12.1258 8.81849 12.1194 9.48773 12.0888C10.1068 12.0606 10.4425 11.9573 10.6664 11.8702C10.9623 11.7548 11.1741 11.6181 11.3962 11.3959C11.6068 11.1911 11.7689 10.9413 11.8704 10.6661C11.9575 10.4423 12.0608 10.1065 12.0891 9.48748C12.1196 8.81825 12.126 8.61748 12.126 6.92306C12.126 5.22864 12.1196 5.02787 12.0891 4.35863C12.0608 3.7396 11.9575 3.40383 11.8704 3.17998C11.755 2.88402 11.6183 2.67229 11.3962 2.45017C11.1913 2.23964 10.942 2.0776 10.6664 1.97594C10.4425 1.88883 10.1068 1.78556 9.48773 1.75729V1.75729ZM6.11273 8.8794C6.56541 9.06785 7.06948 9.09328 7.53884 8.95136C8.00819 8.80944 8.41372 8.50897 8.68615 8.10128C8.95859 7.69358 9.08103 7.20394 9.03256 6.716C8.98409 6.22806 8.76773 5.77208 8.42042 5.42594C8.19902 5.20468 7.93131 5.03526 7.63657 4.92987C7.34183 4.82449 7.0274 4.78577 6.7159 4.81649C6.4044 4.84721 6.10358 4.94662 5.83511 5.10756C5.56664 5.26849 5.33719 5.48695 5.16328 5.7472C4.98938 6.00746 4.87533 6.30303 4.82937 6.61265C4.7834 6.92227 4.80666 7.23823 4.89746 7.53778C4.98826 7.83733 5.14435 8.11303 5.35449 8.34501C5.56463 8.577 5.82359 8.75951 6.11273 8.8794ZM4.61676 4.61652C4.91966 4.31362 5.27926 4.07335 5.67501 3.90942C6.07077 3.74549 6.49494 3.66112 6.9233 3.66112C7.35167 3.66112 7.77584 3.74549 8.17159 3.90942C8.56735 4.07335 8.92694 4.31362 9.22984 4.61652C9.53274 4.91942 9.77301 5.27901 9.93694 5.67477C10.1009 6.07053 10.1852 6.49469 10.1852 6.92306C10.1852 7.35142 10.1009 7.77559 9.93694 8.17135C9.77301 8.5671 9.53274 8.9267 9.22984 9.2296C8.61811 9.84133 7.78842 10.185 6.9233 10.185C6.05818 10.185 5.2285 9.84133 4.61676 9.2296C4.00503 8.61786 3.66136 7.78818 3.66136 6.92306C3.66136 6.05794 4.00503 5.22825 4.61676 4.61652V4.61652ZM10.9087 4.1469C10.9837 4.0761 11.0438 3.99095 11.0854 3.8965C11.127 3.80206 11.1492 3.70023 11.1507 3.59706C11.1522 3.49388 11.1329 3.39145 11.0942 3.29583C11.0554 3.20022 10.9978 3.11335 10.9248 3.04039C10.8519 2.96742 10.765 2.90984 10.6694 2.87105C10.5738 2.83226 10.4713 2.81304 10.3681 2.81455C10.265 2.81605 10.1631 2.83824 10.0687 2.87981C9.97426 2.92137 9.88911 2.98146 9.8183 3.05652C9.6806 3.2025 9.6052 3.3964 9.60813 3.59706C9.61106 3.79772 9.69207 3.98933 9.83397 4.13124C9.97587 4.27314 10.1675 4.35415 10.3681 4.35708C10.5688 4.36 10.7627 4.28461 10.9087 4.1469V4.1469Z" fill="url(#paint0_linear_1_50)" style="mix-blend-mode:darken"/>
</g>
<defs>
<linearGradient id="paint0_linear_1_50" x1="6.9233" y1="0.576904" x2="6.9233" y2="13.2692" gradientUnits="userSpaceOnUse">
<stop stop-color="#715B4B"/>
<stop offset="0.0001" stop-color="#FF1167"/>
<stop offset="0.9992" stop-color="#EC08BA" stop-opacity="0.454981"/>
<stop offset="0.9993" stop-color="#EC08B7" stop-opacity="0.475827"/>
<stop offset="0.9994" stop-color="#EA07C0" stop-opacity="0.41329"/>
<stop offset="0.9995" stop-color="#DB00FF" stop-opacity="0"/>
<stop offset="0.9996" stop-color="#715B4B" stop-opacity="0.997993"/>
<stop offset="0.9997" stop-color="#715B4B" stop-opacity="0.988183"/>
<stop offset="0.9998" stop-color="#715B4B" stop-opacity="0.889883"/>
<stop offset="1" stop-color="#FF0000" stop-opacity="0.882292"/>
</linearGradient>
<clipPath id="clip0_1_50">
<rect width="13.8462" height="13.8462" fill="white"/>
</clipPath>
</defs>
</svg>
