<svg width="18" height="18" viewBox="0 0 18 18" fill="none" xmlns="http://www.w3.org/2000/svg">
<path d="M15.3113 3.17993C15.7388 3.17993 16.0613 3.55493 15.8888 4.25243L13.7963 14.1149C13.6501 14.8162 13.2263 14.9849 12.6413 14.6587L7.65009 10.9724C7.63074 10.9585 7.61497 10.9402 7.60409 10.9191C7.59321 10.8979 7.58754 10.8744 7.58754 10.8506C7.58754 10.8267 7.59321 10.8033 7.60409 10.7821C7.61497 10.7609 7.63074 10.7426 7.65009 10.7287L13.4138 5.52368C13.6763 5.29118 13.3576 5.17868 13.0126 5.38868L5.77884 9.95243C5.75691 9.96674 5.732 9.97586 5.70601 9.97911C5.68002 9.98236 5.65363 9.97965 5.62884 9.97118L2.55759 8.99993C1.87509 8.80118 1.87509 8.33243 2.71134 7.99868L15.0001 3.25868C15.0975 3.21193 15.2034 3.18515 15.3113 3.17993V3.17993Z" stroke="#715B4B" stroke-linecap="round" stroke-linejoin="round"/>
</svg>
