<svg width="14" height="14" viewBox="0 0 14 14" fill="none" xmlns="http://www.w3.org/2000/svg">
<g clip-path="url(#clip0_1_50)">
<path fill-rule="evenodd" clip-rule="evenodd" d="M4.3841 0.691886C5.06084 0.660732 5.2766 0.653809 7.00045 0.653809C8.7243 0.653809 8.94007 0.661309 9.61622 0.691886C10.2924 0.722462 10.7539 0.830347 11.1578 0.986693C11.5806 1.1465 11.9643 1.39631 12.2816 1.71939C12.6047 2.03612 12.8539 2.41919 13.0131 2.84265C13.1701 3.2465 13.2774 3.70804 13.3085 4.38304C13.3397 5.06092 13.3466 5.27669 13.3466 6.99996C13.3466 8.72381 13.3391 8.93958 13.3085 9.61631C13.278 10.2913 13.1701 10.7528 13.0131 11.1567C12.8539 11.5802 12.6043 11.9639 12.2816 12.2811C11.9643 12.6042 11.5806 12.8534 11.1578 13.0127C10.7539 13.1696 10.2924 13.2769 9.61737 13.308C8.94007 13.3392 8.7243 13.3461 7.00045 13.3461C5.2766 13.3461 5.06084 13.3386 4.3841 13.308C3.7091 13.2775 3.24757 13.1696 2.84372 13.0127C2.42021 12.8534 2.0365 12.6038 1.7193 12.2811C1.39644 11.9642 1.14659 11.5807 0.987182 11.1573C0.830835 10.7534 0.723528 10.2919 0.692374 9.61689C0.66122 8.939 0.654297 8.72323 0.654297 6.99996C0.654297 5.27612 0.661797 5.06035 0.692374 4.38419C0.722951 3.70804 0.830835 3.2465 0.987182 2.84265C1.14683 2.41924 1.39687 2.03572 1.71987 1.71881C2.03663 1.39602 2.41995 1.14618 2.84314 0.986693C3.24699 0.830347 3.70853 0.723039 4.38353 0.691886H4.3841ZM9.56487 1.83419C8.89564 1.80362 8.69487 1.79727 7.00045 1.79727C5.30603 1.79727 5.10526 1.80362 4.43603 1.83419C3.81699 1.86246 3.48122 1.96573 3.25737 2.05285C2.96141 2.16823 2.74968 2.30496 2.52757 2.52708C2.31702 2.73192 2.15498 2.98128 2.05334 3.25689C1.96622 3.48073 1.86295 3.8165 1.83468 4.43554C1.8041 5.10477 1.79776 5.30554 1.79776 6.99996C1.79776 8.69439 1.8041 8.89515 1.83468 9.56439C1.86295 10.1834 1.96622 10.5192 2.05334 10.743C2.15487 11.0182 2.31699 11.268 2.52757 11.4728C2.73237 11.6834 2.98218 11.8455 3.25737 11.9471C3.48122 12.0342 3.81699 12.1375 4.43603 12.1657C5.10526 12.1963 5.30545 12.2027 7.00045 12.2027C8.69545 12.2027 8.89564 12.1963 9.56487 12.1657C10.1839 12.1375 10.5197 12.0342 10.7435 11.9471C11.0395 11.8317 11.2512 11.695 11.4733 11.4728C11.6839 11.268 11.846 11.0182 11.9476 10.743C12.0347 10.5192 12.138 10.1834 12.1662 9.56439C12.1968 8.89515 12.2031 8.69439 12.2031 6.99996C12.2031 5.30554 12.1968 5.10477 12.1662 4.43554C12.138 3.8165 12.0347 3.48073 11.9476 3.25689C11.8322 2.96092 11.6955 2.74919 11.4733 2.52708C11.2685 2.31654 11.0191 2.15451 10.7435 2.05285C10.5197 1.96573 10.1839 1.86246 9.56487 1.83419V1.83419ZM6.18987 8.95631C6.64256 9.14475 7.14663 9.17018 7.61599 9.02826C8.08534 8.88634 8.49087 8.58588 8.7633 8.17818C9.03574 7.77048 9.15817 7.28085 9.10971 6.79291C9.06124 6.30497 8.84488 5.84899 8.49757 5.50285C8.27616 5.28158 8.00846 5.11216 7.71372 5.00678C7.41898 4.90139 7.10454 4.86267 6.79304 4.89339C6.48154 4.92412 6.18073 5.02353 5.91226 5.18446C5.64379 5.3454 5.41434 5.56385 5.24043 5.82411C5.06652 6.08436 4.95248 6.37994 4.90652 6.68956C4.86055 6.99917 4.88381 7.31513 4.97461 7.61468C5.06541 7.91424 5.2215 8.18993 5.43164 8.42192C5.64177 8.6539 5.90073 8.83641 6.18987 8.95631ZM4.69391 4.69342C4.99681 4.39052 5.3564 4.15025 5.75216 3.98632C6.14792 3.8224 6.57209 3.73802 7.00045 3.73802C7.42881 3.73802 7.85298 3.8224 8.24874 3.98632C8.6445 4.15025 9.00409 4.39052 9.30699 4.69342C9.60989 4.99632 9.85016 5.35592 10.0141 5.75167C10.178 6.14743 10.2624 6.5716 10.2624 6.99996C10.2624 7.42833 10.178 7.8525 10.0141 8.24825C9.85016 8.64401 9.60989 9.0036 9.30699 9.3065C8.69526 9.91823 7.86557 10.2619 7.00045 10.2619C6.13533 10.2619 5.30564 9.91823 4.69391 9.3065C4.08218 8.69477 3.73851 7.86508 3.73851 6.99996C3.73851 6.13484 4.08218 5.30516 4.69391 4.69342V4.69342ZM10.9858 4.22381C11.0609 4.153 11.121 4.06786 11.1625 3.97341C11.2041 3.87896 11.2263 3.77714 11.2278 3.67396C11.2293 3.57078 11.2101 3.46836 11.1713 3.37274C11.1325 3.27712 11.0749 3.19026 11.002 3.11729C10.929 3.04433 10.8421 2.98675 10.7465 2.94795C10.6509 2.90916 10.5485 2.88995 10.4453 2.89145C10.3421 2.89296 10.2403 2.91515 10.1459 2.95671C10.0514 2.99827 9.96626 3.05836 9.89545 3.13342C9.75774 3.2794 9.68235 3.4733 9.68528 3.67396C9.6882 3.87462 9.76922 4.06624 9.91112 4.20814C10.053 4.35004 10.2446 4.43106 10.4453 4.43398C10.646 4.43691 10.8399 4.36151 10.9858 4.22381V4.22381Z" fill="#715B4B"/>
</g>
<defs>
<clipPath id="clip0_1_50">
<rect width="13.8462" height="13.8462" fill="white" transform="translate(0.0771484 0.0769043)"/>
</clipPath>
</defs>
</svg>
