<svg width="16" height="14" viewBox="0 0 16 14" fill="none" xmlns="http://www.w3.org/2000/svg">
<path d="M14.2479 1C14.6754 1 14.9979 1.375 14.8254 2.0725L13.7791 7.00375L12.7329 11.935C12.5866 12.6362 12.1629 12.805 11.5779 12.4787L6.58662 8.7925C6.56726 8.77861 6.55149 8.76031 6.54061 8.73912C6.52973 8.71793 6.52406 8.69445 6.52406 8.67062C6.52406 8.6468 6.52973 8.62332 6.54061 8.60213C6.55149 8.58093 6.56726 8.56264 6.58662 8.54875L12.3504 3.34375C12.6129 3.11125 12.2941 2.99875 11.9491 3.20875L4.71537 7.7725C4.69343 7.78681 4.66852 7.79593 4.64253 7.79918C4.61654 7.80243 4.59015 7.79972 4.56537 7.79125L1.49412 6.82C0.811618 6.62125 0.811618 6.1525 1.64787 5.81875L13.9366 1.07875C14.0341 1.032 14.1399 1.00522 14.2479 1Z" stroke="url(#paint0_linear_1_57)" stroke-linecap="round" stroke-linejoin="round"/>
<defs>
<linearGradient id="paint0_linear_1_57" x1="7.93638" y1="1" x2="7.93638" y2="12.6387" gradientUnits="userSpaceOnUse">
<stop offset="0.0135415" stop-color="#4886FF"/>
<stop offset="0.690625" stop-color="#7EDCFF"/>
</linearGradient>
</defs>
</svg>
